<svg xmlns="http://www.w3.org/2000/svg" viewBox="0 0 512 512"><title>512 black</title><g id="Layer_2" data-name="Layer 2"><path d="M512,355.77V409.6H381.34l-42.95-53.83-46.87-58.72-46.87,58.72-43,53.83H38.4C17.19,409.6,0,391.53,0,369.23V297.85c0-16.46,9.5-31.27,24-37.43L51.2,248.87l42.7-18.12,24-10.22C133.36,214,151,218.61,161.74,232L178.4,252.9l7.36,9.2L152.34,304l-17.87-22.38a12.39,12.39,0,0,0-14.6-3.83L59.2,303.52a13.48,13.48,0,0,0-8,12.48v26.32c0,7.43,5.73,13.45,12.8,13.45H177.82l1.13-1.41,52.88-66.26,26.27-32.92-62.34-78.12c-16.93-21.22-44.93-28.56-69.36-18.19L51.2,190.82,0,212.57V154.51l100.76-42.79C149.6,91,205.6,105.65,239.46,148.07l52.06,65.24,33.42,41.87,80.27,100.59ZM291.68,213.1l-.16.21,33.42,41.87.16-.2h0Zm87.82-110-43,53.83-28.14,35.27L341.81,234l61.56-77.13H512V103.08Z"/></g></svg>