<svg xmlns="http://www.w3.org/2000/svg" viewBox="0 0 64 64"><title>64 black</title><g id="Layer_2" data-name="Layer 2"><path d="M64,44.47V51.2H47.67L42.3,44.47l-5.86-7.34-5.86,7.34L25.21,51.2H4.8A4.93,4.93,0,0,1,0,46.15V37.23a5.06,5.06,0,0,1,3-4.68l3.4-1.44,5.34-2.27,3-1.27A4.66,4.66,0,0,1,20.22,29l2.08,2.61.92,1.15L19,38l-2.23-2.8A1.56,1.56,0,0,0,15,34.72L7.4,37.94a1.69,1.69,0,0,0-1,1.56v3.29A1.64,1.64,0,0,0,8,44.47H22.23l.14-.18L29,36l3.28-4.11-7.79-9.77a7.36,7.36,0,0,0-8.67-2.27l-9.4,4L0,26.57V19.31L12.6,14a14.72,14.72,0,0,1,17.33,4.55l6.51,8.15,4.18,5.24,10,12.57ZM36.46,26.64l0,0,4.18,5.24,0,0h0Zm11-13.75-5.37,6.72L38.55,24l4.18,5.24,7.69-9.65H64V12.89Z"/></g></svg>